<svg xmlns="http://www.w3.org/2000/svg" viewBox="0 0 583.39 367.72"><defs><style>.cls-1{fill:#f5e928;}.cls-1,.cls-2{opacity:0.15;}.cls-2{fill:#efb817;}.cls-12,.cls-26,.cls-29,.cls-3,.cls-30,.cls-31,.cls-32,.cls-34,.cls-35,.cls-36,.cls-37,.cls-4,.cls-42,.cls-45,.cls-46,.cls-48,.cls-49,.cls-5,.cls-51,.cls-52,.cls-61,.cls-62,.cls-64,.cls-65,.cls-67,.cls-68,.cls-70,.cls-71,.cls-72,.cls-73,.cls-74,.cls-75,.cls-77,.cls-78,.cls-79,.cls-8,.cls-80,.cls-82,.cls-83,.cls-84,.cls-85,.cls-9{fill:none;}.cls-26,.cls-3,.cls-36,.cls-42,.cls-61,.cls-64,.cls-65{stroke:#040000;}.cls-26,.cls-29,.cls-3,.cls-30,.cls-31,.cls-32,.cls-34,.cls-35,.cls-36,.cls-37,.cls-42,.cls-61,.cls-62,.cls-64,.cls-65,.cls-71,.cls-72,.cls-73,.cls-80,.cls-82{stroke-miterlimit:10;}.cls-3,.cls-61,.cls-80{stroke-width:0.5px;}.cls-12,.cls-5,.cls-8,.cls-9{stroke:#323333;}.cls-12,.cls-45,.cls-46,.cls-48,.cls-49,.cls-5,.cls-51,.cls-52,.cls-67,.cls-68,.cls-70,.cls-74,.cls-75,.cls-77,.cls-78,.cls-79,.cls-8,.cls-83,.cls-84,.cls-85,.cls-9{stroke-linejoin:round;}.cls-5,.cls-8{stroke-width:0.69px;}.cls-6{font-size:3.87px;fill:#4d4d4d;}.cls-27,.cls-28,.cls-39,.cls-41,.cls-44,.cls-56,.cls-57,.cls-58,.cls-59,.cls-6,.cls-60,.cls-63,.cls-81{font-family:ArialMT, Arial;}.cls-7{fill:#eb7369;}.cls-12,.cls-48,.cls-51,.cls-8{stroke-linecap:round;}.cls-9{stroke-width:1.38px;}.cls-10{fill:#da8511;}.cls-11{fill:#323333;}.cls-12{stroke-width:0.46px;}.cls-13{fill:#bd9612;}.cls-14{fill:#94a324;}.cls-15{fill:#53ab33;}.cls-16{fill:#2cae56;}.cls-17{fill:#28b28c;}.cls-18{fill:#1cb4b8;}.cls-19{fill:#1fabdb;}.cls-20{fill:#3897d4;}.cls-21{fill:#9286be;}.cls-22{fill:#ad76b1;}.cls-23{fill:#ca6ba7;}.cls-24{fill:#ea629d;}.cls-25{fill:#831a1f;}.cls-26{stroke-width:0.32px;}.cls-27{font-size:6.88px;}.cls-27,.cls-28,.cls-43,.cls-44,.cls-57,.cls-59,.cls-60{fill:#040000;}.cls-28,.cls-56{font-size:8px;}.cls-29,.cls-30,.cls-31,.cls-34,.cls-37{stroke:#1b2783;}.cls-29,.cls-30,.cls-31,.cls-34,.cls-35,.cls-36{stroke-width:0.79px;}.cls-30{stroke-dasharray:1.58 1.58;}.cls-31{stroke-dasharray:1.53 1.53;}.cls-32,.cls-35{stroke:#1b903b;}.cls-32{stroke-width:0.8px;stroke-dasharray:1.75 1.75;}.cls-33{fill:#fff;}.cls-34{stroke-dasharray:1.56 1.56;}.cls-35,.cls-61{stroke-dasharray:1.58 1.58;}.cls-37{stroke-width:0.79px;stroke-dasharray:1.6 1.6;}.cls-38,.cls-39,.cls-40,.cls-41,.cls-43{font-size:8.24px;}.cls-38,.cls-39{fill:#1b903b;}.cls-38,.cls-40,.cls-43,.cls-76{font-family:AdobeSongStd-Light-GBpc-EUC-H, Adobe Song Std;}.cls-40,.cls-41{fill:#1b2783;}.cls-42{stroke-width:0.91px;}.cls-44,.cls-63{font-size:9px;}.cls-45,.cls-46{stroke:#ebeaea;}.cls-45{stroke-width:0.26px;}.cls-46,.cls-49,.cls-51{stroke-width:0.52px;}.cls-47{font-size:2.14px;fill:#313333;font-family:AdobePiStd, AdobePiStd GBpc-EUC-H;}.cls-48,.cls-49,.cls-51,.cls-52{stroke:#313333;}.cls-48{stroke-width:0.34px;}.cls-50{fill:#e06f66;}.cls-52{stroke-width:1.03px;}.cls-53{fill:#75a02f;}.cls-54{fill:#23aaae;}.cls-55{fill:#9979ad;}.cls-56{fill:#231815;}.cls-57{font-size:9.04px;}.cls-58{font-size:9.92px;}.cls-58,.cls-63{fill:#060001;}.cls-59{font-size:6.5px;}.cls-60{font-size:7px;}.cls-62,.cls-82{stroke:#34ad37;}.cls-65{stroke-dasharray:2.02 2.02;}.cls-66{fill:#333;}.cls-67,.cls-75{stroke:#000;}.cls-68,.cls-70{stroke:#333;}.cls-68,.cls-75{stroke-width:0.89px;}.cls-69{fill:#7d89a9;}.cls-70{stroke-width:1.77px;}.cls-71{stroke:#13ae67;}.cls-72{stroke:#2ea7e0;}.cls-73{stroke:#f8b62d;}.cls-74{stroke:#e83828;stroke-dasharray:11.34 2.84 1.77 2.84;}.cls-75{stroke-dasharray:0.89 1.46;}.cls-77,.cls-83{stroke:#0d3391;}.cls-77,.cls-78,.cls-79{stroke-width:1.07px;}.cls-78,.cls-85{stroke:#20a99b;}.cls-79,.cls-84{stroke:#085aa5;}.cls-80{stroke:#898989;}.cls-81{font-size:14px;}.cls-82,.cls-83,.cls-84,.cls-85{stroke-width:2px;}</style></defs><title>application</title><g id="图层_2" data-name="图层 2"><g id="图层"><rect class="cls-1" x="228.21" y="213.15" width="146.85" height="135.19"/><rect class="cls-2" x="442.76" y="214.61" width="134.6" height="134.8"/><rect class="cls-3" x="443.01" y="214.42" width="134.6" height="134.8"/><rect class="cls-4" x="442.76" y="214.17" width="135.09" height="135.3"/><rect class="cls-3" x="9.66" y="21.23" width="154" height="141.73"/><rect class="cls-3" x="9.66" y="213.15" width="154" height="141.73"/><line class="cls-5" x1="117.68" y1="155.61" x2="117.68" y2="154.43"/><text class="cls-6" transform="translate(113.91 159.33)">0.95</text><text class="cls-6" transform="translate(69.66 146.07)">Digesti</text><text class="cls-6" transform="translate(81.5 146.07)">v</text><text class="cls-6" transform="translate(83.34 146.07)">e_system</text><text class="cls-6" transform="translate(53.95 137.38)">Digesti</text><text class="cls-6" transform="translate(65.79 137.38)">v</text><text class="cls-6" transform="translate(67.63 137.38)">e_system:Intestine</text><text class="cls-6" transform="translate(42.11 128.7)">Digesti</text><text class="cls-6" transform="translate(53.94 128.7)">v</text><text class="cls-6" transform="translate(55.79 128.7)">e_system:Large_intestine</text><text class="cls-6" transform="translate(31.69 120.02)">Digesti</text><text class="cls-6" transform="translate(43.52 120.02)">v</text><text class="cls-6" transform="translate(45.37 120.02)">e_system:Large_intestine:</text><text class="cls-6" transform="translate(90.57 120.02)">F</text><text class="cls-6" transform="translate(92.82 120.02)">ecal</text><text class="cls-6" transform="translate(61.31 111.34)">Digesti</text><text class="cls-6" transform="translate(73.14 111.34)">v</text><text class="cls-6" transform="translate(74.99 111.34)">e_system:O</text><text class="cls-6" transform="translate(95.65 111.34)">r</text><text class="cls-6" transform="translate(96.9 111.34)">al</text><text class="cls-6" transform="translate(33.45 102.65)">Digesti</text><text class="cls-6" transform="translate(45.28 102.65)">v</text><text class="cls-6" transform="translate(47.13 102.65)">e_system:O</text><text class="cls-6" transform="translate(67.79 102.65)">r</text><text class="cls-6" transform="translate(69.04 102.65)">al:</text><text class="cls-6" transform="translate(73.13 102.65)">b</text><text class="cls-6" transform="translate(75.2 102.65)">uccal_</text><text class="cls-6" transform="translate(86.39 102.65)">m</text><text class="cls-6" transform="translate(89.59 102.65)">ucosa</text><text class="cls-6" transform="translate(49.79 93.96)">Digesti</text><text class="cls-6" transform="translate(61.62 93.96)">v</text><text class="cls-6" transform="translate(63.47 93.96)">e_system:O</text><text class="cls-6" transform="translate(84.13 93.96)">r</text><text class="cls-6" transform="translate(85.38 93.96)">al:Sali</text><text class="cls-6" transform="translate(95.92 93.96)">v</text><text class="cls-6" transform="translate(97.77 93.96)">a</text><text class="cls-6" transform="translate(26.54 85.28)">Digesti</text><text class="cls-6" transform="translate(38.37 85.28)">v</text><text class="cls-6" transform="translate(40.22 85.28)">e_system:O</text><text class="cls-6" transform="translate(60.88 85.28)">r</text><text class="cls-6" transform="translate(62.13 85.28)">al:Subgingi</text><text class="cls-6" transform="translate(81.29 85.28)">v</text><text class="cls-6" transform="translate(83.13 85.28)">al_plaque</text><text class="cls-6" transform="translate(23.14 76.6)">Digesti</text><text class="cls-6" transform="translate(34.97 76.6)">v</text><text class="cls-6" transform="translate(36.82 76.6)">e_system:O</text><text class="cls-6" transform="translate(57.48 76.6)">r</text><text class="cls-6" transform="translate(58.73 76.6)">al:Sup</text><text class="cls-6" transform="translate(69.7 76.6)">r</text><text class="cls-6" transform="translate(70.96 76.6)">agingi</text><text class="cls-6" transform="translate(81.29 76.6)">v</text><text class="cls-6" transform="translate(83.13 76.6)">al_plaque</text><text class="cls-6" transform="translate(33.33 67.91)">Digesti</text><text class="cls-6" transform="translate(45.16 67.91)">v</text><text class="cls-6" transform="translate(47.01 67.91)">e_system:O</text><text class="cls-6" transform="translate(67.67 67.91)">r</text><text class="cls-6" transform="translate(68.92 67.91)">al:tongue_dorsum</text><text class="cls-6" transform="translate(49.92 59.23)">Reproducti</text><text class="cls-6" transform="translate(68.64 59.23)">v</text><text class="cls-6" transform="translate(70.49 59.23)">e_system:</text><text class="cls-6" transform="translate(88.14 59.23)">V</text><text class="cls-6" transform="translate(90.45 59.23)">agina</text><text class="cls-6" transform="translate(36.24 50.54)">Respi</text><text class="cls-6" transform="translate(46.13 50.54)">r</text><text class="cls-6" transform="translate(47.39 50.54)">ato</text><text class="cls-6" transform="translate(52.77 50.54)">r</text><text class="cls-6" transform="translate(54.17 50.54)">y_system:Nasopha</text><text class="cls-6" transform="translate(87.1 50.54)">r</text><text class="cls-6" transform="translate(88.5 50.54)">yngeal</text><text class="cls-6" transform="translate(17.09 41.86)">Respi</text><text class="cls-6" transform="translate(26.99 41.86)">r</text><text class="cls-6" transform="translate(28.24 41.86)">ato</text><text class="cls-6" transform="translate(33.63 41.86)">r</text><text class="cls-6" transform="translate(35.03 41.86)">y_system:Pulmona</text><text class="cls-6" transform="translate(67.74 41.86)">r</text><text class="cls-6" transform="translate(69.14 41.86)">y_system:Sputum</text><text class="cls-6" transform="translate(92.39 33.17)">Skin</text><line class="cls-5" x1="100.59" y1="144.91" x2="101.77" y2="144.91"/><line class="cls-5" x1="100.59" y1="136.22" x2="101.77" y2="136.22"/><line class="cls-5" x1="100.59" y1="127.54" x2="101.77" y2="127.54"/><line class="cls-5" x1="100.59" y1="118.85" x2="101.77" y2="118.85"/><line class="cls-5" x1="100.59" y1="110.17" x2="101.77" y2="110.17"/><line class="cls-5" x1="100.59" y1="101.48" x2="101.77" y2="101.48"/><line class="cls-5" x1="100.59" y1="92.8" x2="101.77" y2="92.8"/><line class="cls-5" x1="100.59" y1="84.11" x2="101.77" y2="84.11"/><line class="cls-5" x1="100.59" y1="75.43" x2="101.77" y2="75.43"/><line class="cls-5" x1="100.59" y1="66.74" x2="101.77" y2="66.74"/><line class="cls-5" x1="100.59" y1="58.06" x2="101.77" y2="58.06"/><line class="cls-5" x1="100.59" y1="49.37" x2="101.77" y2="49.37"/><line class="cls-5" x1="100.59" y1="40.69" x2="101.77" y2="40.69"/><line class="cls-5" x1="100.59" y1="32" x2="101.77" y2="32"/><line class="cls-5" x1="149.27" y1="149.22" x2="149.47" y2="149.22"/><line class="cls-5" x1="148.62" y1="149.22" x2="147.7" y2="149.22"/><rect class="cls-7" x="148.62" y="146.61" width="0.65" height="5.22"/><rect class="cls-8" x="148.62" y="146.62" width="0.65" height="5.21"/><line class="cls-9" x1="149.15" y1="151.83" x2="149.15" y2="146.61"/><rect class="cls-4" x="102.04" y="31.1" width="53.03" height="123.33"/><line class="cls-5" x1="144.89" y1="140.53" x2="150.13" y2="140.53"/><line class="cls-5" x1="141.29" y1="140.53" x2="137.5" y2="140.53"/><rect class="cls-10" x="141.29" y="137.93" width="3.6" height="5.21"/><rect class="cls-8" x="141.29" y="137.93" width="3.6" height="5.21"/><line class="cls-9" x1="144.57" y1="143.14" x2="144.57" y2="137.93"/><path class="cls-11" d="M148.11,131.85a.84.84,0,1,1,.84.84.85.85,0,0,1-.84-.84"/><path class="cls-12" d="M148.11,131.85a.84.84,0,1,1,.84.84.85.85,0,0,1-.84-.84"/><line class="cls-5" x1="149.86" y1="131.85" x2="150.06" y2="131.85"/><line class="cls-5" x1="149.54" y1="131.85" x2="149.54" y2="131.85"/><rect class="cls-13" x="149.54" y="129.24" width="0.33" height="5.21"/><rect class="cls-8" x="149.54" y="129.24" width="0.33" height="5.21"/><line class="cls-9" x1="149.67" y1="134.45" x2="149.67" y2="129.24"/><line class="cls-5" x1="150.26" y1="123.16" x2="150.26" y2="123.16"/><line class="cls-5" x1="149.86" y1="123.16" x2="149.28" y2="123.16"/><rect class="cls-14" x="149.86" y="120.56" width="0.4" height="5.21"/><rect class="cls-8" x="149.86" y="120.56" width="0.4" height="5.21"/><line class="cls-9" x1="150" y1="125.77" x2="150" y2="120.56"/><line class="cls-5" x1="150.06" y1="114.48" x2="150.32" y2="114.48"/><line class="cls-5" x1="149.47" y1="114.48" x2="149.21" y2="114.48"/><rect class="cls-15" x="149.47" y="111.87" width="0.59" height="5.21"/><rect class="cls-8" x="149.47" y="111.87" width="0.59" height="5.21"/><line class="cls-9" x1="149.86" y1="117.08" x2="149.86" y2="111.87"/><line class="cls-5" x1="150.39" y1="105.79" x2="150.39" y2="105.79"/><line class="cls-5" x1="142.01" y1="105.79" x2="133.18" y2="105.79"/><rect class="cls-16" x="142.01" y="103.19" width="8.38" height="5.21"/><rect class="cls-8" x="142.01" y="103.19" width="8.38" height="5.21"/><line class="cls-9" x1="142.74" y1="108.4" x2="142.74" y2="103.19"/><line class="cls-5" x1="149.27" y1="97.11" x2="149.73" y2="97.11"/><line class="cls-5" x1="145.88" y1="97.11" x2="142.67" y2="97.11"/><rect class="cls-17" x="145.88" y="94.5" width="3.4" height="5.21"/><rect class="cls-8" x="145.88" y="94.5" width="3.4" height="5.21"/><line class="cls-9" x1="146.27" y1="99.72" x2="146.27" y2="94.51"/><path class="cls-11" d="M137.83,88.43a.85.85,0,1,1,1.69,0,.85.85,0,0,1-1.69,0"/><path class="cls-12" d="M137.83,88.43a.85.85,0,1,1,1.69,0,.85.85,0,0,1-1.69,0"/><line class="cls-5" x1="147.05" y1="88.43" x2="147.45" y2="88.43"/><line class="cls-5" x1="145.48" y1="88.43" x2="145.48" y2="88.43"/><rect class="cls-18" x="145.48" y="85.82" width="1.57" height="5.21"/><rect class="cls-8" x="145.48" y="85.82" width="1.57" height="5.21"/><line class="cls-9" x1="146.99" y1="91.03" x2="146.99" y2="85.82"/><path class="cls-11" d="M132,79.74a.84.84,0,1,1,.84.84.85.85,0,0,1-.84-.84"/><path class="cls-12" d="M132,79.74a.84.84,0,1,1,.84.84.85.85,0,0,1-.84-.84"/><line class="cls-5" x1="145.61" y1="79.74" x2="145.94" y2="79.74"/><line class="cls-5" x1="142.08" y1="79.74" x2="142.08" y2="79.74"/><rect class="cls-19" x="142.08" y="77.13" width="3.53" height="5.21"/><rect class="cls-8" x="142.08" y="77.13" width="3.53" height="5.21"/><line class="cls-9" x1="142.47" y1="82.35" x2="142.47" y2="77.14"/><line class="cls-5" x1="150.39" y1="71.06" x2="150.39" y2="71.06"/><line class="cls-5" x1="145.22" y1="71.06" x2="139.59" y2="71.06"/><rect class="cls-20" x="145.22" y="68.45" width="5.17" height="5.21"/><rect class="cls-8" x="145.22" y="68.45" width="5.17" height="5.21"/><line class="cls-9" x1="146.07" y1="73.66" x2="146.07" y2="68.45"/><line class="cls-5" x1="150.39" y1="62.37" x2="150.39" y2="62.37"/><line class="cls-5" x1="131.09" y1="62.37" x2="117.54" y2="62.37"/><rect class="cls-21" x="131.09" y="59.76" width="19.3" height="5.21"/><rect class="cls-8" x="131.09" y="59.76" width="19.3" height="5.21"/><line class="cls-9" x1="133.05" y1="64.98" x2="133.05" y2="59.76"/><path class="cls-11" d="M144.31,53.68a.85.85,0,1,1,.84.85.85.85,0,0,1-.84-.85"/><path class="cls-12" d="M144.31,53.68a.85.85,0,1,1,.84.85.85.85,0,0,1-.84-.85"/><line class="cls-5" x1="148.1" y1="53.68" x2="148.29" y2="53.68"/><line class="cls-5" x1="147.12" y1="53.68" x2="147.12" y2="53.68"/><rect class="cls-22" x="147.12" y="51.08" width="0.98" height="5.21"/><rect class="cls-8" x="147.12" y="51.08" width="0.98" height="5.21"/><line class="cls-9" x1="147.31" y1="56.29" x2="147.31" y2="51.08"/><line class="cls-5" x1="150.26" y1="45" x2="150.39" y2="45"/><line class="cls-5" x1="115.91" y1="45" x2="115.84" y2="45"/><rect class="cls-23" x="115.91" y="42.39" width="34.35" height="5.21"/><rect class="cls-8" x="115.91" y="42.39" width="34.35" height="5.21"/><line class="cls-9" x1="123.04" y1="47.6" x2="123.04" y2="42.39"/><line class="cls-5" x1="149.34" y1="36.31" x2="150.06" y2="36.31"/><line class="cls-5" x1="148.23" y1="36.31" x2="147.64" y2="36.31"/><rect class="cls-24" x="148.23" y="33.71" width="1.12" height="5.21"/><rect class="cls-8" x="148.23" y="33.71" width="1.12" height="5.21"/><line class="cls-9" x1="148.43" y1="38.92" x2="148.43" y2="33.71"/><rect class="cls-25" x="148.09" y="148.46" width="1.51" height="1.51" transform="translate(-61.92 148.95) rotate(-45)"/><rect class="cls-25" x="142.92" y="139.78" width="1.51" height="1.51" transform="translate(-57.3 142.19) rotate(-44.84)"/><rect class="cls-25" x="148.86" y="131.09" width="1.51" height="1.51" transform="translate(-49.39 144.69) rotate(-45.08)"/><rect class="cls-25" x="149.17" y="122.41" width="1.51" height="1.51" transform="translate(-43.14 142.45) rotate(-45.11)"/><rect class="cls-25" x="149.03" y="113.72" width="1.51" height="1.51" transform="translate(-37.08 139.44) rotate(-45)"/><rect class="cls-25" x="142.98" y="105.04" width="1.51" height="1.51" transform="translate(-32.71 132.63) rotate(-45)"/><polygon class="cls-25" points="145.69 97.11 146.76 96.04 147.83 97.11 146.76 98.18 145.69 97.11"/><rect class="cls-25" x="144.37" y="87.67" width="1.51" height="1.51" transform="translate(-20.06 128.36) rotate(-44.95)"/><rect class="cls-25" x="141.02" y="78.98" width="1.51" height="1.51" transform="translate(-14.86 123.61) rotate(-45)"/><rect class="cls-25" x="145.57" y="70.3" width="1.51" height="1.51" transform="translate(-7.38 124.28) rotate(-45)"/><rect class="cls-25" x="135.73" y="61.61" width="1.51" height="1.51" transform="translate(-4.12 114.78) rotate(-45)"/><rect class="cls-25" x="146.44" y="52.93" width="1.51" height="1.51" transform="translate(4.97 119.41) rotate(-44.84)"/><rect class="cls-25" x="130.33" y="44.24" width="1.51" height="1.51" transform="translate(6.58 105.87) rotate(-45)"/><rect class="cls-25" x="147.98" y="35.55" width="1.51" height="1.51" transform="translate(17.89 115.81) rotate(-45)"/><polyline class="cls-8" points="12.53 154.43 155.06 154.43 155.06 29.68"/><polyline class="cls-4" points="155.06 31.1 102.04 31.1 102.04 154.43 155.06 154.43"/><line class="cls-5" x1="150.39" y1="155.61" x2="150.39" y2="154.43"/><text class="cls-6" transform="translate(146.62 159.33)">1.00</text><line class="cls-26" x1="102.04" y1="31.1" x2="102.04" y2="154.43"/><text class="cls-6" transform="translate(97.93 159.33)">0.90</text><line class="cls-5" x1="102.4" y1="155.61" x2="102.4" y2="154.43"/><text class="cls-27" transform="translate(120.6 29.06)">AUC</text><text class="cls-28" transform="translate(20.66 7.29)">EXPERT for microbial source tracking</text><text class="cls-28" transform="translate(241.82 201.33)">EXPERT for disease diagnosis<tspan x="-44.03" y="9.6">(i.e. monitoring disease progression, disease diagnosis)</tspan></text><line class="cls-29" x1="327.07" y1="157.51" x2="326.61" y2="157.97"/><line class="cls-30" x1="325.69" y1="158.89" x2="309.58" y2="175"/><line class="cls-29" x1="309.12" y1="175.45" x2="308.66" y2="175.91"/><line class="cls-29" x1="327.07" y1="157.51" x2="327.53" y2="157.96"/><line class="cls-31" x1="328.43" y1="158.85" x2="344.13" y2="174.44"/><line class="cls-29" x1="344.58" y1="174.89" x2="345.04" y2="175.35"/><path class="cls-32" d="M213.41,147c17.88,17.88,56.64,8.12,86.57-21.81s39.69-68.68,21.81-86.57-56.64-8.11-86.57,21.81S195.53,129.1,213.41,147Z"/><line class="cls-29" x1="308.66" y1="139.6" x2="308.2" y2="140.06"/><line class="cls-30" x1="307.28" y1="140.98" x2="291.17" y2="157.09"/><line class="cls-29" x1="290.71" y1="157.55" x2="290.26" y2="158.01"/><line class="cls-29" x1="308.66" y1="139.6" x2="309.12" y2="140.06"/><line class="cls-31" x1="310.02" y1="140.95" x2="325.72" y2="156.54"/><line class="cls-29" x1="326.17" y1="156.98" x2="326.64" y2="157.44"/><path class="cls-33" d="M330.75,158a3.68,3.68,0,1,1-3.68-3.68,3.68,3.68,0,0,1,3.68,3.68"/><path class="cls-34" d="M330.75,158a3.68,3.68,0,1,1-3.68-3.68A3.68,3.68,0,0,1,330.75,158Z"/><path class="cls-33" d="M293.94,158a3.69,3.69,0,1,1-3.69-3.68,3.69,3.69,0,0,1,3.69,3.68"/><path class="cls-34" d="M293.94,158a3.69,3.69,0,1,1-3.69-3.68A3.69,3.69,0,0,1,293.94,158Z"/><line class="cls-35" x1="290.26" y1="47.57" x2="327.07" y2="65.97"/><line class="cls-36" x1="290.26" y1="47.57" x2="290.26" y2="65.97"/><line class="cls-35" x1="290.26" y1="47.57" x2="253.44" y2="65.73"/><line class="cls-36" x1="290.26" y1="121.19" x2="271.85" y2="139.6"/><line class="cls-35" x1="253.44" y1="121.19" x2="235.03" y2="139.6"/><line class="cls-35" x1="253.44" y1="84.38" x2="235.03" y2="102.79"/><line class="cls-35" x1="271.85" y1="65.97" x2="253.44" y2="84.38"/><line class="cls-35" x1="271.85" y1="102.79" x2="253.44" y2="121.19"/><line class="cls-36" x1="327.07" y1="84.38" x2="345.04" y2="102.22"/><line class="cls-36" x1="327.07" y1="84.38" x2="308.66" y2="102.79"/><line class="cls-36" x1="290.26" y1="84.38" x2="271.85" y2="102.79"/><line class="cls-36" x1="290.26" y1="47.57" x2="271.85" y2="65.97"/><line class="cls-36" x1="308.66" y1="65.97" x2="290.25" y2="47.57"/><line class="cls-36" x1="308.66" y1="65.97" x2="290.25" y2="84.38"/><line class="cls-36" x1="327.07" y1="84.38" x2="308.66" y2="65.97"/><path class="cls-33" d="M275.53,66a3.68,3.68,0,1,1-3.68-3.68A3.69,3.69,0,0,1,275.53,66"/><path class="cls-36" d="M275.53,66a3.68,3.68,0,1,1-3.68-3.68A3.69,3.69,0,0,1,275.53,66Z"/><path class="cls-33" d="M293.94,47.57a3.69,3.69,0,1,1-3.69-3.69,3.69,3.69,0,0,1,3.69,3.69"/><path class="cls-36" d="M293.94,47.57a3.69,3.69,0,1,1-3.69-3.69A3.69,3.69,0,0,1,293.94,47.57Z"/><path class="cls-33" d="M312.34,66a3.68,3.68,0,1,1-3.68-3.68A3.69,3.69,0,0,1,312.34,66"/><path class="cls-36" d="M312.34,66a3.68,3.68,0,1,1-3.68-3.68A3.69,3.69,0,0,1,312.34,66Z"/><path class="cls-33" d="M293.94,84.38a3.69,3.69,0,1,1-3.69-3.68,3.69,3.69,0,0,1,3.69,3.68"/><circle class="cls-36" cx="290.25" cy="84.38" r="3.68" transform="translate(141.45 347.48) rotate(-76.72)"/><path class="cls-33" d="M330.75,84.38a3.68,3.68,0,1,1-3.68-3.68,3.68,3.68,0,0,1,3.68,3.68"/><circle class="cls-36" cx="327.07" cy="84.38" r="3.68" transform="translate(169.8 383.31) rotate(-76.72)"/><path class="cls-33" d="M275.53,102.79a3.68,3.68,0,1,1-3.68-3.68,3.68,3.68,0,0,1,3.68,3.68"/><path class="cls-36" d="M275.53,102.79a3.68,3.68,0,1,1-3.68-3.68A3.68,3.68,0,0,1,275.53,102.79Z"/><text class="cls-28" transform="translate(367.72 49.76)">Layer 1</text><path class="cls-33" d="M349.16,102.79a3.69,3.69,0,1,1-3.69-3.68,3.69,3.69,0,0,1,3.69,3.68"/><path class="cls-36" d="M349.16,102.79a3.69,3.69,0,1,1-3.69-3.68A3.69,3.69,0,0,1,349.16,102.79Z"/><text class="cls-28" transform="translate(367.72 67.93)">Layer 2</text><line class="cls-36" x1="308.66" y1="102.79" x2="326.63" y2="120.62"/><line class="cls-36" x1="308.66" y1="102.79" x2="290.25" y2="121.19"/><path class="cls-33" d="M330.75,121.19a3.68,3.68,0,1,1-3.68-3.68,3.69,3.69,0,0,1,3.68,3.68"/><path class="cls-36" d="M330.75,121.19a3.68,3.68,0,1,1-3.68-3.68A3.69,3.69,0,0,1,330.75,121.19Z"/><path class="cls-33" d="M312.34,102.79a3.68,3.68,0,1,1-3.68-3.68,3.68,3.68,0,0,1,3.68,3.68"/><path class="cls-36" d="M312.34,102.79a3.68,3.68,0,1,1-3.68-3.68A3.68,3.68,0,0,1,312.34,102.79Z"/><line class="cls-36" x1="290.26" y1="121.19" x2="308.23" y2="139.03"/><path class="cls-33" d="M312.34,139.6a3.68,3.68,0,1,1-3.68-3.68,3.68,3.68,0,0,1,3.68,3.68"/><circle class="cls-36" cx="308.66" cy="139.6" r="3.68" transform="translate(168.47 447.99) rotate(-89.89)"/><path class="cls-33" d="M293.94,121.19a3.69,3.69,0,1,1-3.69-3.68,3.69,3.69,0,0,1,3.69,3.68"/><path class="cls-36" d="M293.94,121.19a3.69,3.69,0,1,1-3.69-3.68A3.69,3.69,0,0,1,293.94,121.19Z"/><path class="cls-33" d="M257.12,121.19a3.68,3.68,0,1,1-3.68-3.68,3.69,3.69,0,0,1,3.68,3.68"/><path class="cls-35" d="M257.12,121.19a3.68,3.68,0,1,1-3.68-3.68A3.69,3.69,0,0,1,257.12,121.19Z"/><path class="cls-33" d="M257.12,84.38a3.68,3.68,0,1,1-3.68-3.68,3.68,3.68,0,0,1,3.68,3.68"/><circle class="cls-35" cx="253.44" cy="84.38" r="3.68" transform="translate(122.66 317.29) rotate(-79.1)"/><path class="cls-33" d="M238.72,102.79A3.69,3.69,0,1,1,235,99.11a3.69,3.69,0,0,1,3.69,3.68"/><path class="cls-35" d="M238.72,102.79A3.69,3.69,0,1,1,235,99.11,3.69,3.69,0,0,1,238.72,102.79Z"/><path class="cls-33" d="M238.72,139.6a3.69,3.69,0,1,1-3.69-3.68,3.68,3.68,0,0,1,3.69,3.68"/><circle class="cls-35" cx="235.03" cy="139.6" r="3.68" transform="translate(94.98 374.37) rotate(-89.89)"/><path class="cls-33" d="M275.53,139.6a3.68,3.68,0,1,1-3.68-3.68,3.68,3.68,0,0,1,3.68,3.68"/><circle class="cls-36" cx="271.85" cy="139.6" r="3.68" transform="translate(131.73 411.18) rotate(-89.89)"/><path class="cls-33" d="M257.12,65.73a3.68,3.68,0,1,1-3.68-3.68,3.69,3.69,0,0,1,3.68,3.68"/><path class="cls-35" d="M257.12,65.73a3.68,3.68,0,1,1-3.68-3.68A3.69,3.69,0,0,1,257.12,65.73Z"/><path class="cls-33" d="M293.94,66a3.69,3.69,0,1,1-3.69-3.68A3.69,3.69,0,0,1,293.94,66"/><path class="cls-36" d="M293.94,66a3.69,3.69,0,1,1-3.69-3.68A3.69,3.69,0,0,1,293.94,66Z"/><path class="cls-33" d="M330.75,66a3.68,3.68,0,1,1-3.68-3.68A3.69,3.69,0,0,1,330.75,66"/><path class="cls-35" d="M330.75,66a3.68,3.68,0,1,1-3.68-3.68A3.69,3.69,0,0,1,330.75,66Z"/><path class="cls-37" d="M349.93,96.25c11.12,27.59,14.41,90.61-10.71,91-32.58.54-54.54.63-71.37-44-15.12-40.06-13-103.88,9.5-112.08S333.81,52,349.93,96.25Z"/><text class="cls-38" transform="translate(177.49 156.7)">②</text><text class="cls-39" transform="translate(185.72 156.7)">Grafting</text><text class="cls-40" transform="translate(361.14 155.54)">③</text><text class="cls-41" transform="translate(369.37 155.54)">Scattering</text><text class="cls-28" transform="translate(367.72 87.82)">Layer 3</text><text class="cls-28" transform="translate(367.72 105.99)">Layer 4</text><text class="cls-28" transform="translate(367.72 123.23)">Layer 5</text><text class="cls-28" transform="translate(367.72 141.4)">Layer 6</text><path class="cls-42" d="M349.9,91.93c0,34.46-26.09,62.4-58.28,62.4s-58.27-27.94-58.27-62.4,26.09-62.39,58.27-62.39S349.9,57.47,349.9,91.93Z"/><path class="cls-33" d="M349.16,175.91a3.69,3.69,0,1,1-3.69-3.68,3.69,3.69,0,0,1,3.69,3.68"/><path class="cls-34" d="M349.16,175.91a3.69,3.69,0,1,1-3.69-3.68A3.69,3.69,0,0,1,349.16,175.91Z"/><path class="cls-33" d="M312.34,175.91a3.68,3.68,0,1,1-3.68-3.68,3.69,3.69,0,0,1,3.68,3.68"/><circle class="cls-34" cx="308.66" cy="175.91" r="3.68" transform="translate(132.16 484.24) rotate(-89.89)"/><text class="cls-43" transform="translate(237.94 24.55)">①</text><text class="cls-44" transform="translate(246.18 24.55)">Original biome ontology</text><line class="cls-3" x1="237.91" y1="21.08" x2="163.77" y2="21.08"/><line class="cls-45" x1="443.75" y1="130.3" x2="577.16" y2="130.3"/><line class="cls-45" x1="443.75" y1="88.96" x2="577.16" y2="88.96"/><line class="cls-45" x1="443.75" y1="47.61" x2="577.16" y2="47.61"/><line class="cls-46" x1="443.75" y1="150.98" x2="577.16" y2="150.98"/><line class="cls-46" x1="443.75" y1="109.63" x2="577.16" y2="109.63"/><line class="cls-46" x1="443.75" y1="68.29" x2="577.16" y2="68.29"/><line class="cls-46" x1="443.75" y1="26.94" x2="577.16" y2="26.94"/><line class="cls-46" x1="462.81" y1="157.18" x2="462.81" y2="20.74"/><line class="cls-46" x1="494.58" y1="157.18" x2="494.58" y2="20.74"/><line class="cls-46" x1="526.34" y1="157.18" x2="526.34" y2="20.74"/><line class="cls-46" x1="558.1" y1="157.18" x2="558.1" y2="20.74"/><rect class="cls-4" x="443.76" y="20.74" width="133.41" height="136.44"/><text class="cls-47" transform="translate(461.96 124.56) scale(1 1.19)">●</text><path class="cls-48" d="M463.92,123.59a.9.9,0,1,0-.88,1A1,1,0,0,0,463.92,123.59Z"/><rect class="cls-4" x="443.76" y="20.74" width="133.41" height="136.44"/><text class="cls-47" transform="translate(461.96 116.8) scale(1 1.19)">●</text><path class="cls-48" d="M463.92,115.82a.9.9,0,1,0-1.77,0,1,1,0,0,0,.89,1.06A1,1,0,0,0,463.92,115.82Z"/><rect class="cls-4" x="443.76" y="20.74" width="133.41" height="136.44"/><text class="cls-47" transform="translate(461.96 87.59) scale(1 1.19)">●</text><path class="cls-48" d="M463.92,86.62a.9.9,0,1,0-.88,1A1,1,0,0,0,463.92,86.62Z"/><rect class="cls-4" x="443.76" y="20.74" width="133.41" height="136.44"/><text class="cls-47" transform="translate(461.96 35.99) scale(1 1.19)">●</text><path class="cls-48" d="M463.92,35a.9.9,0,1,0-.88,1A1,1,0,0,0,463.92,35Z"/><rect class="cls-4" x="443.76" y="20.74" width="133.41" height="136.44"/><text class="cls-47" transform="translate(461.96 123.47) scale(1 1.19)">●</text><path class="cls-48" d="M463.92,122.5a.9.9,0,1,0-.88,1A1,1,0,0,0,463.92,122.5Z"/><rect class="cls-4" x="443.76" y="20.74" width="133.41" height="136.44"/><text class="cls-47" transform="translate(461.96 124.25) scale(1 1.19)">●</text><path class="cls-48" d="M463.92,123.28a.9.9,0,1,0-.88,1A1,1,0,0,0,463.92,123.28Z"/><rect class="cls-4" x="443.76" y="20.74" width="133.41" height="136.44"/><text class="cls-47" transform="translate(461.96 80.32) scale(1 1.19)">●</text><path class="cls-48" d="M463.92,79.34a.9.9,0,1,0-1.77,0A1,1,0,0,0,463,80.4,1,1,0,0,0,463.92,79.34Z"/><rect class="cls-4" x="443.76" y="20.74" width="133.41" height="136.44"/><text class="cls-47" transform="translate(461.96 36.48) scale(1 1.19)">●</text><path class="cls-48" d="M463.92,35.51a.9.9,0,1,0-.88,1.05A1,1,0,0,0,463.92,35.51Z"/><rect class="cls-4" x="443.76" y="20.74" width="133.41" height="136.44"/><text class="cls-47" transform="translate(461.96 124.57) scale(1 1.19)">●</text><path class="cls-48" d="M463.92,123.6a.9.9,0,1,0-.88,1.05A1,1,0,0,0,463.92,123.6Z"/><rect class="cls-4" x="443.76" y="20.74" width="133.41" height="136.44"/><text class="cls-47" transform="translate(461.96 124.57) scale(1 1.19)">●</text><path class="cls-48" d="M463.92,123.6a.9.9,0,1,0-.88,1.05A1,1,0,0,0,463.92,123.6Z"/><rect class="cls-4" x="443.76" y="20.74" width="133.41" height="136.44"/><text class="cls-47" transform="translate(461.96 124.57) scale(1 1.19)">●</text><path class="cls-48" d="M463.92,123.6a.9.9,0,1,0-.88,1.05A1,1,0,0,0,463.92,123.6Z"/><rect class="cls-4" x="443.76" y="20.74" width="133.41" height="136.44"/><text class="cls-47" transform="translate(461.96 86.9) scale(1 1.19)">●</text><path class="cls-48" d="M463.92,85.92a.9.9,0,1,0-1.77,0A1,1,0,0,0,463,87,1,1,0,0,0,463.92,85.92Z"/><rect class="cls-4" x="443.76" y="20.74" width="133.41" height="136.44"/><text class="cls-47" transform="translate(461.96 56.73) scale(1 1.19)">●</text><path class="cls-48" d="M463.92,55.75a.9.9,0,1,0-.88,1A1,1,0,0,0,463.92,55.75Z"/><rect class="cls-4" x="443.76" y="20.74" width="133.41" height="136.44"/><text class="cls-47" transform="translate(461.96 117.67) scale(1 1.19)">●</text><path class="cls-48" d="M463.92,116.7a.9.9,0,1,0-.88,1A1,1,0,0,0,463.92,116.7Z"/><rect class="cls-4" x="443.76" y="20.74" width="133.41" height="136.44"/><text class="cls-47" transform="translate(461.96 114.45) scale(1 1.19)">●</text><path class="cls-48" d="M463.92,113.47a.9.9,0,1,0-.88,1A1,1,0,0,0,463.92,113.47Z"/><rect class="cls-4" x="443.76" y="20.74" width="133.41" height="136.44"/><text class="cls-47" transform="translate(461.96 115.81) scale(1 1.19)">●</text><path class="cls-48" d="M463.92,114.83a.9.9,0,1,0-.88,1A1,1,0,0,0,463.92,114.83Z"/><rect class="cls-4" x="443.76" y="20.74" width="133.41" height="136.44"/><text class="cls-47" transform="translate(461.96 124.57) scale(1 1.19)">●</text><path class="cls-48" d="M463.92,123.6a.9.9,0,1,0-.88,1.05A1,1,0,0,0,463.92,123.6Z"/><rect class="cls-4" x="443.76" y="20.74" width="133.41" height="136.44"/><text class="cls-47" transform="translate(461.96 112.63) scale(1 1.19)">●</text><path class="cls-48" d="M463.92,111.66a.9.9,0,1,0-.88,1A1,1,0,0,0,463.92,111.66Z"/><rect class="cls-4" x="443.76" y="20.74" width="133.41" height="136.44"/><text class="cls-47" transform="translate(461.96 50.84) scale(1 1.19)">●</text><path class="cls-48" d="M463.92,49.87a.9.9,0,1,0-.88,1.05A1,1,0,0,0,463.92,49.87Z"/><rect class="cls-4" x="443.76" y="20.74" width="133.41" height="136.44"/><text class="cls-47" transform="translate(461.96 86.62) scale(1 1.19)">●</text><path class="cls-48" d="M463.92,85.64a.9.9,0,1,0-.88,1A1,1,0,0,0,463.92,85.64Z"/><rect class="cls-4" x="443.76" y="20.74" width="133.41" height="136.44"/><text class="cls-47" transform="translate(461.96 112.38) scale(1 1.19)">●</text><path class="cls-48" d="M463.92,111.41a.9.9,0,1,0-.88,1A1,1,0,0,0,463.92,111.41Z"/><rect class="cls-4" x="443.76" y="20.74" width="133.41" height="136.44"/><text class="cls-47" transform="translate(461.96 123.75) scale(1 1.19)">●</text><path class="cls-48" d="M463.92,122.78a.9.9,0,1,0-.88,1A1,1,0,0,0,463.92,122.78Z"/><rect class="cls-4" x="443.76" y="20.74" width="133.41" height="136.44"/><text class="cls-47" transform="translate(461.96 74.19) scale(1 1.19)">●</text><path class="cls-48" d="M463.92,73.22a.9.9,0,1,0-.88,1A1,1,0,0,0,463.92,73.22Z"/><rect class="cls-4" x="443.76" y="20.74" width="133.41" height="136.44"/><text class="cls-47" transform="translate(461.96 35.96) scale(1 1.19)">●</text><path class="cls-48" d="M463.92,35a.9.9,0,1,0-.88,1A1,1,0,0,0,463.92,35Z"/><rect class="cls-4" x="443.76" y="20.74" width="133.41" height="136.44"/><text class="cls-47" transform="translate(461.96 122.24) scale(1 1.19)">●</text><path class="cls-48" d="M463.92,121.26a.9.9,0,1,0-.88,1A1,1,0,0,0,463.92,121.26Z"/><rect class="cls-4" x="443.76" y="20.74" width="133.41" height="136.44"/><text class="cls-47" transform="translate(461.96 124.57) scale(1 1.19)">●</text><path class="cls-48" d="M463.92,123.6a.9.9,0,1,0-.88,1.05A1,1,0,0,0,463.92,123.6Z"/><rect class="cls-4" x="443.76" y="20.74" width="133.41" height="136.44"/><text class="cls-47" transform="translate(461.96 78.31) scale(1 1.19)">●</text><path class="cls-48" d="M463.92,77.34a.9.9,0,1,0-.88,1A1,1,0,0,0,463.92,77.34Z"/><rect class="cls-4" x="443.76" y="20.74" width="133.41" height="136.44"/><text class="cls-47" transform="translate(461.96 78.06) scale(1 1.19)">●</text><path class="cls-48" d="M463.92,77.09a.9.9,0,1,0-.88,1A1,1,0,0,0,463.92,77.09Z"/><rect class="cls-4" x="443.76" y="20.74" width="133.41" height="136.44"/><text class="cls-47" transform="translate(461.96 86.01) scale(1 1.19)">●</text><path class="cls-48" d="M463.92,85a.9.9,0,1,0-.88,1A1,1,0,0,0,463.92,85Z"/><rect class="cls-4" x="443.76" y="20.74" width="133.41" height="136.44"/><text class="cls-47" transform="translate(461.96 87.23) scale(1 1.19)">●</text><path class="cls-48" d="M463.92,86.25a.9.9,0,1,0-.88,1A1,1,0,0,0,463.92,86.25Z"/><rect class="cls-4" x="443.76" y="20.74" width="133.41" height="136.44"/><line class="cls-49" x1="462.81" y1="106.56" x2="462.81" y2="106.56"/><line class="cls-49" x1="462.81" y1="108.21" x2="462.81" y2="110.64"/><rect class="cls-50" x="454.87" y="106.56" width="15.88" height="1.65"/><rect class="cls-51" x="454.87" y="106.56" width="15.88" height="1.65"/><line class="cls-52" x1="454.87" y1="106.57" x2="470.75" y2="106.57"/><line class="cls-49" x1="494.58" y1="71.09" x2="494.58" y2="32.59"/><line class="cls-49" x1="494.58" y1="104.49" x2="494.58" y2="104.49"/><rect class="cls-53" x="486.63" y="71.09" width="15.88" height="33.41"/><rect class="cls-51" x="486.63" y="71.09" width="15.88" height="33.41"/><line class="cls-52" x1="486.63" y1="104.42" x2="502.52" y2="104.42"/><line class="cls-49" x1="526.34" y1="35.15" x2="526.34" y2="34.93"/><line class="cls-49" x1="526.34" y1="122.87" x2="526.34" y2="144.01"/><rect class="cls-54" x="518.4" y="35.15" width="15.88" height="87.72"/><rect class="cls-51" x="518.4" y="35.15" width="15.88" height="87.72"/><line class="cls-52" x1="518.4" y1="35.15" x2="534.28" y2="35.15"/><text class="cls-47" transform="translate(557.26 118.13) scale(1 1.19)">●</text><path class="cls-48" d="M559.22,117.16a.9.9,0,1,0-.89,1A1,1,0,0,0,559.22,117.16Z"/><rect class="cls-4" x="443.76" y="20.74" width="133.41" height="136.44"/><text class="cls-47" transform="translate(557.26 100.79) scale(1 1.19)">●</text><path class="cls-48" d="M559.22,99.81a.9.9,0,1,0-.89,1.06A1,1,0,0,0,559.22,99.81Z"/><rect class="cls-4" x="443.76" y="20.74" width="133.41" height="136.44"/><text class="cls-47" transform="translate(557.26 124.97) scale(1 1.19)">●</text><path class="cls-48" d="M559.22,124a.9.9,0,1,0-.89,1A1,1,0,0,0,559.22,124Z"/><rect class="cls-4" x="443.76" y="20.74" width="133.41" height="136.44"/><text class="cls-47" transform="translate(557.26 118.91) scale(1 1.19)">●</text><path class="cls-48" d="M559.22,117.94a.9.9,0,1,0-.89,1A1,1,0,0,0,559.22,117.94Z"/><rect class="cls-4" x="443.76" y="20.74" width="133.41" height="136.44"/><text class="cls-47" transform="translate(557.26 118.91) scale(1 1.19)">●</text><path class="cls-48" d="M559.22,117.94a.9.9,0,1,0-.89,1A1,1,0,0,0,559.22,117.94Z"/><rect class="cls-4" x="443.76" y="20.74" width="133.41" height="136.44"/><text class="cls-47" transform="translate(557.26 118.91) scale(1 1.19)">●</text><path class="cls-48" d="M559.22,117.94a.9.9,0,1,0-.89,1A1,1,0,0,0,559.22,117.94Z"/><rect class="cls-4" x="443.76" y="20.74" width="133.41" height="136.44"/><text class="cls-47" transform="translate(557.26 100.64) scale(1 1.19)">●</text><path class="cls-48" d="M559.22,99.67a.9.9,0,1,0-.89,1A1,1,0,0,0,559.22,99.67Z"/><rect class="cls-4" x="443.76" y="20.74" width="133.41" height="136.44"/><text class="cls-47" transform="translate(557.26 135.17) scale(1 1.19)">●</text><path class="cls-48" d="M559.22,134.2a.9.9,0,1,0-.89,1.05A1,1,0,0,0,559.22,134.2Z"/><rect class="cls-4" x="443.76" y="20.74" width="133.41" height="136.44"/><text class="cls-47" transform="translate(557.26 111.23) scale(1 1.19)">●</text><path class="cls-48" d="M559.22,110.26a.9.9,0,1,0-.89,1A1,1,0,0,0,559.22,110.26Z"/><rect class="cls-4" x="443.76" y="20.74" width="133.41" height="136.44"/><text class="cls-47" transform="translate(557.26 118.91) scale(1 1.19)">●</text><path class="cls-48" d="M559.22,117.94a.9.9,0,1,0-.89,1A1,1,0,0,0,559.22,117.94Z"/><rect class="cls-4" x="443.76" y="20.74" width="133.41" height="136.44"/><text class="cls-47" transform="translate(557.26 112.65) scale(1 1.19)">●</text><path class="cls-48" d="M559.22,111.67a.9.9,0,1,0-.89,1A1,1,0,0,0,559.22,111.67Z"/><rect class="cls-4" x="443.76" y="20.74" width="133.41" height="136.44"/><text class="cls-47" transform="translate(557.26 110.06) scale(1 1.19)">●</text><path class="cls-48" d="M559.22,109.09a.9.9,0,1,0-.89,1A1,1,0,0,0,559.22,109.09Z"/><rect class="cls-4" x="443.76" y="20.74" width="133.41" height="136.44"/><text class="cls-47" transform="translate(557.26 113.72) scale(1 1.19)">●</text><path class="cls-48" d="M559.22,112.74a.9.9,0,1,0-.89,1.06A1,1,0,0,0,559.22,112.74Z"/><rect class="cls-4" x="443.76" y="20.74" width="133.41" height="136.44"/><text class="cls-47" transform="translate(557.26 116.99) scale(1 1.19)">●</text><path class="cls-48" d="M559.22,116a.9.9,0,1,0-.89,1A1,1,0,0,0,559.22,116Z"/><rect class="cls-4" x="443.76" y="20.74" width="133.41" height="136.44"/><text class="cls-47" transform="translate(557.26 117.89) scale(1 1.19)">●</text><path class="cls-48" d="M559.22,116.91a.9.9,0,1,0-.89,1A1,1,0,0,0,559.22,116.91Z"/><rect class="cls-4" x="443.76" y="20.74" width="133.41" height="136.44"/><text class="cls-47" transform="translate(557.26 118.91) scale(1 1.19)">●</text><path class="cls-48" d="M559.22,117.94a.9.9,0,1,0-.89,1A1,1,0,0,0,559.22,117.94Z"/><rect class="cls-4" x="443.76" y="20.74" width="133.41" height="136.44"/><text class="cls-47" transform="translate(557.26 108.77) scale(1 1.19)">●</text><path class="cls-48" d="M559.22,107.79a.9.9,0,1,0-.89,1.06A1,1,0,0,0,559.22,107.79Z"/><rect class="cls-4" x="443.76" y="20.74" width="133.41" height="136.44"/><text class="cls-47" transform="translate(557.26 109.86) scale(1 1.19)">●</text><path class="cls-48" d="M559.22,108.89a.9.9,0,1,0-.89,1A1,1,0,0,0,559.22,108.89Z"/><rect class="cls-4" x="443.76" y="20.74" width="133.41" height="136.44"/><text class="cls-47" transform="translate(557.26 102.42) scale(1 1.19)">●</text><path class="cls-48" d="M559.22,101.45a.9.9,0,1,0-.89,1A1,1,0,0,0,559.22,101.45Z"/><rect class="cls-4" x="443.76" y="20.74" width="133.41" height="136.44"/><text class="cls-47" transform="translate(557.26 124.93) scale(1 1.19)">●</text><path class="cls-48" d="M559.22,124a.9.9,0,1,0-.89,1A1,1,0,0,0,559.22,124Z"/><rect class="cls-4" x="443.76" y="20.74" width="133.41" height="136.44"/><line class="cls-49" x1="558.1" y1="145.47" x2="558.1" y2="145.31"/><line class="cls-49" x1="558.1" y1="150.98" x2="558.1" y2="150.98"/><rect class="cls-55" x="550.16" y="145.47" width="15.88" height="5.51"/><rect class="cls-51" x="550.16" y="145.47" width="15.88" height="5.51"/><line class="cls-52" x1="550.16" y1="150.98" x2="566.05" y2="150.98"/><rect class="cls-51" x="443.75" y="20.74" width="133.41" height="136.44"/><rect class="cls-4" x="443.76" y="20.74" width="133.41" height="136.44"/><text class="cls-56" transform="translate(430.01 151.15)">0.0</text><text class="cls-56" transform="translate(430.01 110.83)">0.2</text><text class="cls-56" transform="translate(430.01 70.51)">0.4</text><text class="cls-56" transform="translate(430.01 30.19)">0.6</text><line class="cls-49" x1="442.67" y1="150.98" x2="443.75" y2="150.98"/><line class="cls-49" x1="442.67" y1="109.63" x2="443.75" y2="109.63"/><line class="cls-49" x1="442.67" y1="68.29" x2="443.75" y2="68.29"/><line class="cls-49" x1="442.67" y1="26.94" x2="443.75" y2="26.94"/><line class="cls-49" x1="462.81" y1="158.47" x2="462.81" y2="157.18"/><line class="cls-49" x1="494.58" y1="158.47" x2="494.58" y2="157.18"/><line class="cls-49" x1="526.34" y1="158.47" x2="526.34" y2="157.18"/><line class="cls-49" x1="558.1" y1="158.47" x2="558.1" y2="157.18"/><text class="cls-57" transform="matrix(0.97, 0.26, -0.26, 0.97, 451.56, 166.96)">Birth</text><text class="cls-57" transform="matrix(0.97, 0.26, -0.26, 0.97, 471.94, 164.55)">4 Months</text><text class="cls-57" transform="matrix(0.97, 0.26, -0.26, 0.97, 510.45, 165.71)">Mother</text><text class="cls-57" transform="matrix(0.97, 0.26, -0.26, 0.97, 540.35, 164.49)">Unknown</text><text class="cls-58" transform="translate(428.17 130.59) rotate(-90) scale(1.19 1)">Source proportion</text><line class="cls-35" x1="110.06" y1="271.35" x2="100.18" y2="290.59"/><line class="cls-35" x1="101.55" y1="322.75" x2="95.67" y2="334.22"/><text class="cls-28" transform="translate(82.21 228.11)">root</text><text class="cls-28" transform="translate(117.1 271.25)">Terrestrial</text><text class="cls-28" transform="translate(103.7 249.07)">Environmental</text><text class="cls-28" transform="translate(131.33 294.49)">Soil</text><text class="cls-28" transform="translate(47.24 272.02)">Aquatic</text><text class="cls-28" transform="translate(37.4 294.16)">Lentic</text><text class="cls-59" transform="translate(74.29 295.58)">Deep</text><text class="cls-28" transform="translate(74.29 304.8)">subsurface</text><text class="cls-28" transform="translate(13.19 317.65)">Brackish</text><line class="cls-29" x1="123.89" y1="293.43" x2="123.33" y2="293.98"/><line class="cls-29" x1="123.89" y1="293.43" x2="124.45" y2="293.98"/><line class="cls-36" x1="74.9" y1="226.49" x2="74.9" y2="248.83"/><line class="cls-35" x1="66.72" y1="293.52" x2="50.05" y2="315.87"/><line class="cls-35" x1="81.13" y1="271.18" x2="64.05" y2="296.19"/><line class="cls-36" x1="74.9" y1="226.49" x2="52.55" y2="248.83"/><line class="cls-36" x1="97.24" y1="248.83" x2="74.9" y2="226.49"/><line class="cls-36" x1="97.24" y1="248.83" x2="81.13" y2="271.18"/><line class="cls-36" x1="111.08" y1="271.18" x2="97.24" y2="248.83"/><path class="cls-33" d="M57,248.83a4.47,4.47,0,1,1-4.47-4.47A4.47,4.47,0,0,1,57,248.83"/><circle class="cls-36" cx="52.55" cy="248.83" r="4.47" transform="translate(-201.43 235.76) rotate(-75.13)"/><path class="cls-33" d="M79.37,226.49A4.47,4.47,0,1,1,74.9,222a4.47,4.47,0,0,1,4.47,4.47"/><circle class="cls-36" cx="74.9" cy="226.49" r="4.47"/><path class="cls-33" d="M101.71,248.83a4.47,4.47,0,1,1-4.47-4.47,4.47,4.47,0,0,1,4.47,4.47"/><circle class="cls-36" cx="97.24" cy="248.83" r="4.47"/><path class="cls-33" d="M85.6,271.18a4.47,4.47,0,1,1-4.47-4.47,4.47,4.47,0,0,1,4.47,4.47"/><path class="cls-36" d="M85.6,271.18a4.47,4.47,0,1,1-4.47-4.47A4.47,4.47,0,0,1,85.6,271.18Z"/><path class="cls-33" d="M71.19,293.52a4.47,4.47,0,1,1-4.47-4.47,4.47,4.47,0,0,1,4.47,4.47"/><circle class="cls-35" cx="66.72" cy="293.52" r="4.47"/><path class="cls-33" d="M101.71,293.52a4.47,4.47,0,1,1-4.47-4.47,4.47,4.47,0,0,1,4.47,4.47"/><circle class="cls-35" cx="97.24" cy="293.52" r="4.47"/><line class="cls-36" x1="110.05" y1="271.08" x2="123.36" y2="292.73"/><path class="cls-33" d="M128.36,293.43a4.47,4.47,0,1,1-4.47-4.48,4.47,4.47,0,0,1,4.47,4.48"/><path class="cls-36" d="M128.36,293.43a4.47,4.47,0,1,1-4.47-4.48A4.47,4.47,0,0,1,128.36,293.43Z"/><path class="cls-33" d="M54.52,315.87a4.47,4.47,0,1,1-4.47-4.47,4.47,4.47,0,0,1,4.47,4.47"/><circle class="cls-35" cx="50.05" cy="315.87" r="4.47"/><path class="cls-33" d="M79.37,248.83a4.47,4.47,0,1,1-4.47-4.47,4.47,4.47,0,0,1,4.47,4.47"/><circle class="cls-36" cx="74.9" cy="248.83" r="4.47"/><path class="cls-33" d="M114.55,270.85a4.47,4.47,0,1,1-4.47-4.47,4.47,4.47,0,0,1,4.47,4.47"/><path class="cls-36" d="M114.55,270.85a4.47,4.47,0,1,1-4.47-4.47,4.47,4.47,0,0,1,4.47,4.47"/><text class="cls-60" transform="translate(39.55 248.94)">...</text><text class="cls-60" transform="translate(62.54 248.94)">...</text><path class="cls-35" d="M98.53,337.1a2.67,2.67,0,1,1-2.67-2.66A2.67,2.67,0,0,1,98.53,337.1Z"/><text class="cls-44" transform="translate(101.14 331.17)">understudied <tspan x="15.01" y="10.8">biome</tspan></text><rect class="cls-61" x="83.83" y="317.38" width="76.73" height="28.35" rx="3.33" ry="3.33"/><line class="cls-3" x1="181.46" y1="157.22" x2="181.46" y2="217.89"/><line class="cls-3" x1="163.74" y1="217.89" x2="181.74" y2="217.89"/><polyline class="cls-62" points="234.89 342.2 234.92 327.51 235.01 283.54 235.02 278.17 235.05 274.99 235.07 272.49 235.09 270.27 235.1 268.77 235.11 267.84 235.12 266.74 235.13 265.68 235.14 264.92 235.15 264.53 235.17 263.91 235.18 263.25 235.18 262.48 235.19 262.22 235.22 261.63 235.22 261.1 235.22 260.5 235.23 259.85 235.24 259.44 235.25 258.98 235.26 258.62 235.26 258.14 235.26 257.62 235.27 257 235.28 256.58 235.3 256.25 235.31 255.76 235.32 255.44 235.33 255.25 235.34 254.68 235.34 254.22 235.35 253.62 235.35 253.15 235.37 252.68 235.38 252.24 235.39 251.98 235.4 251.43 235.41 250.97 235.42 250.41 235.44 250.07 235.44 249.38 235.45 248.95 235.47 248.54 235.47 248.45 235.48 248.21 235.48 247.69 235.49 247.34 235.5 246.98 235.52 246.62 235.54 246.29 235.55 245.84 235.57 245.61 235.58 245.44 235.59 245.15 235.59 245.07 235.61 244.74 235.63 244.47 235.63 244.3 235.66 243.97 235.67 243.83 235.7 243.69 235.71 243.51 235.73 243.15 235.75 242.91 235.76 242.42 235.78 242.06 235.79 241.46 235.84 241.1 235.84 240.58 235.87 240.34 235.91 240 235.96 239.74 235.99 238.93 236.02 238.72 236.07 238.21 236.09 237.83 236.14 237.51 236.19 237 236.23 236.62 236.28 236.32 236.33 235.68 236.42 235.28 236.49 234.91 236.54 234.3 236.63 233.88 236.72 233.38 236.81 232.97 236.93 232.7 237.08 231.95 237.28 231.57 237.55 231.03 237.76 230.3 238.04 229.59 238.44 228.98 239.01 228.43 239.79 227.48 241.03 226.33 243.45 224.41 368.4 219.29"/><rect class="cls-3" x="228.21" y="213.15" width="146.85" height="135.19"/><rect class="cls-4" x="227.94" y="212.9" width="147.4" height="135.69"/><text class="cls-56" transform="translate(211.14 344.72)">0.00</text><text class="cls-56" transform="translate(211.14 283.27)">0.50</text><text class="cls-56" transform="translate(211.14 221.82)">1.00</text><text class="cls-56" transform="translate(228.61 356.35)">0.00</text><text class="cls-56" transform="translate(293.97 356.35)">0.50</text><text class="cls-56" transform="translate(359.34 356.35)">1.00</text><text class="cls-63" transform="translate(291.94 364.79) scale(1.19 1)">FPR</text><text class="cls-63" transform="translate(208.26 291) rotate(-90) scale(1.19 1)">TPR</text><line class="cls-33" x1="234.51" y1="341.99" x2="368.4" y2="219.29"/><line class="cls-64" x1="234.51" y1="341.99" x2="235.29" y2="341.27"/><line class="cls-65" x1="236.89" y1="339.81" x2="366.81" y2="220.75"/><line class="cls-64" x1="367.61" y1="220.02" x2="368.4" y2="219.29"/><line class="cls-66" x1="445.76" y1="348.96" x2="445.76" y2="350.71"/><line class="cls-67" x1="445.76" y1="348.96" x2="445.76" y2="350.71"/><text class="cls-56" transform="translate(443.79 357.07)">1</text><line class="cls-66" x1="450.23" y1="348.96" x2="450.23" y2="350.71"/><line class="cls-67" x1="450.23" y1="348.96" x2="450.23" y2="350.71"/><line class="cls-66" x1="454.7" y1="348.96" x2="454.7" y2="350.71"/><line class="cls-67" x1="454.7" y1="348.96" x2="454.7" y2="350.71"/><line class="cls-66" x1="459.17" y1="348.96" x2="459.17" y2="350.71"/><line class="cls-67" x1="459.17" y1="348.96" x2="459.17" y2="350.71"/><line class="cls-66" x1="463.64" y1="348.96" x2="463.64" y2="350.71"/><line class="cls-67" x1="463.64" y1="348.96" x2="463.64" y2="350.71"/><text class="cls-56" transform="translate(466.39 357.07)">6</text><line class="cls-66" x1="468.11" y1="348.96" x2="468.11" y2="350.71"/><line class="cls-67" x1="468.11" y1="348.96" x2="468.11" y2="350.71"/><line class="cls-66" x1="472.58" y1="348.96" x2="472.58" y2="350.71"/><line class="cls-67" x1="472.58" y1="348.96" x2="472.58" y2="350.71"/><line class="cls-66" x1="477.05" y1="348.96" x2="477.05" y2="350.71"/><line class="cls-67" x1="477.05" y1="348.96" x2="477.05" y2="350.71"/><line class="cls-66" x1="481.52" y1="348.96" x2="481.52" y2="350.71"/><line class="cls-67" x1="481.52" y1="348.96" x2="481.52" y2="350.71"/><line class="cls-66" x1="485.99" y1="348.96" x2="485.99" y2="350.71"/><line class="cls-67" x1="485.99" y1="348.96" x2="485.99" y2="350.71"/><text class="cls-56" transform="translate(486.43 357.07)">11</text><line class="cls-66" x1="490.47" y1="348.96" x2="490.47" y2="350.71"/><line class="cls-67" x1="490.47" y1="348.96" x2="490.47" y2="350.71"/><line class="cls-66" x1="494.94" y1="348.96" x2="494.94" y2="350.71"/><line class="cls-67" x1="494.94" y1="348.96" x2="494.94" y2="350.71"/><line class="cls-66" x1="499.41" y1="348.96" x2="499.41" y2="350.71"/><line class="cls-67" x1="499.41" y1="348.96" x2="499.41" y2="350.71"/><line class="cls-66" x1="503.88" y1="348.96" x2="503.88" y2="350.71"/><line class="cls-67" x1="503.88" y1="348.96" x2="503.88" y2="350.71"/><line class="cls-66" x1="508.35" y1="348.96" x2="508.35" y2="350.71"/><line class="cls-67" x1="508.35" y1="348.96" x2="508.35" y2="350.71"/><text class="cls-56" transform="translate(509.03 357.07)">16</text><line class="cls-66" x1="512.82" y1="348.96" x2="512.82" y2="350.71"/><line class="cls-67" x1="512.82" y1="348.96" x2="512.82" y2="350.71"/><line class="cls-66" x1="517.29" y1="348.96" x2="517.29" y2="350.71"/><line class="cls-67" x1="517.29" y1="348.96" x2="517.29" y2="350.71"/><line class="cls-66" x1="521.76" y1="348.96" x2="521.76" y2="350.71"/><line class="cls-67" x1="521.76" y1="348.96" x2="521.76" y2="350.71"/><line class="cls-66" x1="526.23" y1="348.96" x2="526.23" y2="350.71"/><line class="cls-67" x1="526.23" y1="348.96" x2="526.23" y2="350.71"/><line class="cls-66" x1="530.7" y1="348.96" x2="530.7" y2="350.71"/><line class="cls-67" x1="530.7" y1="348.96" x2="530.7" y2="350.71"/><text class="cls-56" transform="translate(531.63 357.07)">21</text><line class="cls-66" x1="535.17" y1="348.96" x2="535.17" y2="350.71"/><line class="cls-67" x1="535.17" y1="348.96" x2="535.17" y2="350.71"/><line class="cls-66" x1="539.65" y1="348.96" x2="539.65" y2="350.71"/><line class="cls-67" x1="539.65" y1="348.96" x2="539.65" y2="350.71"/><line class="cls-66" x1="544.12" y1="348.96" x2="544.12" y2="350.71"/><line class="cls-67" x1="544.12" y1="348.96" x2="544.12" y2="350.71"/><line class="cls-66" x1="548.59" y1="348.96" x2="548.59" y2="350.71"/><line class="cls-67" x1="548.59" y1="348.96" x2="548.59" y2="350.71"/><line class="cls-66" x1="553.06" y1="348.96" x2="553.06" y2="350.71"/><line class="cls-67" x1="553.06" y1="348.96" x2="553.06" y2="350.71"/><text class="cls-56" transform="translate(554.23 357.07)">26</text><line class="cls-66" x1="557.53" y1="348.96" x2="557.53" y2="350.71"/><line class="cls-67" x1="557.53" y1="348.96" x2="557.53" y2="350.71"/><line class="cls-66" x1="562" y1="348.96" x2="562" y2="350.71"/><line class="cls-67" x1="562" y1="348.96" x2="562" y2="350.71"/><line class="cls-66" x1="566.47" y1="348.96" x2="566.47" y2="350.71"/><line class="cls-67" x1="566.47" y1="348.96" x2="566.47" y2="350.71"/><line class="cls-66" x1="570.94" y1="348.96" x2="570.94" y2="350.71"/><line class="cls-67" x1="570.94" y1="348.96" x2="570.94" y2="350.71"/><line class="cls-66" x1="575.41" y1="348.96" x2="575.41" y2="350.71"/><line class="cls-67" x1="575.41" y1="348.96" x2="575.41" y2="350.71"/><text class="cls-63" transform="translate(487.33 364.79) scale(1.19 1)">Time point</text><line class="cls-66" x1="443.07" y1="322.85" x2="442.03" y2="322.85"/><line class="cls-67" x1="443.07" y1="322.85" x2="442.03" y2="322.85"/><text class="cls-56" transform="translate(430.01 325.64)">0.2</text><line class="cls-66" x1="443.07" y1="277.26" x2="442.03" y2="277.26"/><line class="cls-67" x1="443.07" y1="277.26" x2="442.03" y2="277.26"/><text class="cls-56" transform="translate(430.01 280.24)">0.4</text><line class="cls-66" x1="443.07" y1="231.66" x2="442.03" y2="231.66"/><line class="cls-67" x1="443.07" y1="231.66" x2="442.03" y2="231.66"/><text class="cls-56" transform="translate(430.01 234.27)">0.6</text><text class="cls-63" transform="translate(427.38 323.08) rotate(-90) scale(1.19 1)">Source contribution</text><line class="cls-68" x1="445.76" y1="308.65" x2="445.76" y2="308.65"/><line class="cls-68" x1="553.06" y1="325" x2="553.06" y2="324.94"/><line class="cls-68" x1="575.41" y1="298.41" x2="575.41" y2="298.41"/><line class="cls-68" x1="575.41" y1="298.41" x2="575.41" y2="298.41"/><polygon class="cls-69" points="573.74 298.41 573.74 298.41 577.09 298.41 573.74 298.41"/><line class="cls-70" x1="475.38" y1="224.73" x2="478.73" y2="224.73"/><polyline class="cls-71" points="445.75 311.99 450.23 295.18 454.7 280.14 459.17 266.88 463.64 255.41 468.11 245.69 472.58 237.72 477.05 231.81 481.52 228 485.99 225.84 490.46 224.9 494.94 226.14 499.41 228.19 503.88 230.39 508.35 234.24 512.82 238.97 517.29 243.84 521.76 249.15 526.23 255.25 535.17 266.82 539.65 271.62 544.12 276.34 548.59 280.98 553.06 285.49 557.53 289.85 562 294.05 566.47 298.12 570.94 302.05 575.41 305.86"/><polyline class="cls-72" points="445.75 308.31 450.23 291.5 454.7 276.46 459.17 263.2 463.64 251.72 468.11 242 472.58 234.03 477.05 228.12 481.52 224.31 485.99 222.16 490.46 221.21 494.94 222.46 499.41 224.51 503.88 226.71 508.35 230.55 512.82 235.29 517.29 240.15 521.76 245.46 526.23 251.56 535.17 263.13 539.65 267.93 544.12 272.65 548.59 277.29 553.06 281.81 557.53 286.16 562 290.37 566.47 294.43 570.94 298.37 575.41 302.18"/><path class="cls-73" d="M444.56,311.29c1.09-5.43,2-11.8,3-17.11s1.87-10.73,2.85-15.58,2-9.52,3.11-13.78,2.31-8.24,3.55-11.88,2.54-7,3.87-10a81.45,81.45,0,0,1,4.06-8.2,45.35,45.35,0,0,1,4.22-6.09,25.35,25.35,0,0,1,4.3-4,21.76,21.76,0,0,1,4.34-2.35c1.45-.71,2.92-.59,4.38-1.18,1.47.5,2.94.6,4.41,1.14s2.93,1.15,4.4,1.85a32.94,32.94,0,0,1,4.4,2.07,41.09,41.09,0,0,1,4.37,3.61c1.46,1.3,2.9,3,4.35,4.48s2.82,3,4.28,4.66,2.73,3.19,4.26,5.13,2.38,3.51,4.27,6,6,8.39,7.8,10.8,2.69,3.12,4.14,4.89,2.63,3.06,4,4.67,2.65,3.07,4,4.59,2.64,3,4,4.49,2.67,2.93,4,4.36,2.69,2.84,4,4.23,2.71,2.76,4.08,4.11,2.76,2.67,4.16,4,2.82,2.56,4.23,3.86"/><polyline class="cls-74" points="445.75 313.4 450.23 289.08 459.17 251.85 463.64 239.52 472.58 225.34 481.52 224.16 490.46 234.4 494.94 240.81 499.41 247.32 503.88 254.46 508.35 263.98 512.82 275.91 517.29 287.88 521.76 300.62 526.23 311.4 530.7 317.95 535.17 322.75 544.12 325.23 548.59 322.37 553.06 317.12"/><line class="cls-75" x1="443.07" y1="254.46" x2="578.1" y2="254.46"/><text class="cls-28" transform="translate(451.96 201.33)">EXPERT for longitudinal analysis<tspan x="-2.44" y="9.6">(i.e. dietary shift, seasonal cycling)</tspan></text><text class="cls-28" transform="translate(442.86 6.87)">Source tracking among detailed biomes<tspan x="12.46" y="9.6">(i.e. mother &amp; infant relationship)</tspan></text><text class="cls-28" transform="translate(14.18 200.34)">Source tracking among newly discovered <tspan x="4.4" y="9.6">biomes</tspan><tspan class="cls-76" x="30.19" y="9.6" xml:space="preserve"> (</tspan><tspan x="34.83" y="9.6">i.e. adapting to emerging data</tspan><tspan class="cls-76" x="140.69" y="9.6">)</tspan></text><polyline class="cls-77" points="234.35 341.32 234.35 341.32 234.35 334.9 234.35 326.35 234.35 317.12 234.35 292.93 234.95 257.54 243.41 237.55 250.62 226.84 268.92 221.59 279.02 220.3 284.83 219.43 297.1 219.43 316.83 219.43 334.44 219.43 339.39 219.43 351.49 219.43 367.65 219.43 367.86 219.43"/><polyline class="cls-78" points="234.35 341.32 234.35 341.32 234.88 335.28 244.89 255.34 266.46 229.84 358.01 220.15 367.68 219.43 367.86 219.43"/><polyline class="cls-79" points="234.35 341.32 234.35 341.32 234.4 340.52 234.66 331.04 238.17 304.84 240.25 254.59 256.63 232.59 270.29 226.09 315.88 220.62 340.49 219.55 351.01 219.43 364.03 219.43 367.82 219.43 367.86 219.43"/><text class="cls-28" transform="translate(525.12 231.59)">majroity of the </text><text class="cls-60" transform="translate(525.12 239.99)">population</text><text class="cls-28" transform="translate(475.81 307.93)">identified an </text><text class="cls-60" transform="translate(475.81 316.33)">exception</text><polyline class="cls-80" points="474.14 319 515.57 318.67 525.19 309.98"/><polyline class="cls-80" points="566.94 243.24 525.51 243.57 522.97 245.74"/><text class="cls-81" transform="translate(1.56 12.33)">i.</text><text class="cls-81" transform="translate(0 203.31)">ii.</text><text class="cls-81" transform="translate(429.14 12.33)">iii.</text><text class="cls-81" transform="translate(205.23 203.31)">iv.</text><text class="cls-81" transform="translate(424.63 203.31)">v.</text><line class="cls-82" x1="328.44" y1="300.59" x2="337.73" y2="300.59"/><line class="cls-83" x1="328.44" y1="309.09" x2="337.73" y2="309.09"/><line class="cls-84" x1="328.44" y1="317.6" x2="337.73" y2="317.6"/><line class="cls-85" x1="328.44" y1="326.1" x2="337.73" y2="326.1"/><text class="cls-28" transform="translate(338.61 303.36)">CRC</text><text class="cls-28" transform="translate(338.61 311.86)">IBD</text><text class="cls-28" transform="translate(338.61 327.86)">...</text><text class="cls-28" transform="translate(338.61 320.85)">IBS</text><polyline class="cls-3" points="365.32 156.36 365.31 159.24 422.03 159.24"/></g></g></svg>